<svg xmlns="http://www.w3.org/2000/svg" width="13" height="18" fill="none" class="bg-icon margin"><path fill="#fff" d="M11.558 3.089A6.128 6.128 0 0 0 6.198 0a6.128 6.128 0 0 0-5.36 3.089 6.104 6.104 0 0 0 0 6.177l4.9 8.469a.532.532 0 0 0 .92 0l4.9-8.47a6.104 6.104 0 0 0 0-6.176Zm-.922 5.645-4.438 7.673L1.76 8.734a5.054 5.054 0 0 1 0-5.114 5.075 5.075 0 0 1 4.438-2.558c1.853 0 3.512.956 4.438 2.558a5.054 5.054 0 0 1 0 5.114Z"/><path fill="#fff" d="M6.198 3.183a3.181 3.181 0 0 0-3.18 3.174 3.18 3.18 0 0 0 6.36 0 3.181 3.181 0 0 0-3.18-3.174Zm0 5.286a2.117 2.117 0 0 1-2.116-2.112 2.117 2.117 0 0 1 4.232 0c0 1.165-.949 2.112-2.116 2.112Z"/></svg>