<svg xmlns="http://www.w3.org/2000/svg" width="14" height="21" fill="none" class="bg-icon"><path fill="#fff" d="M11.456 20.661H2.55c-.991 0-1.797-.806-1.797-1.797V2.459c0-.99.806-1.797 1.797-1.797h8.906c.99 0 1.797.806 1.797 1.797v16.407c0 .99-.806 1.796-1.797 1.796ZM2.55 1.911a.547.547 0 0 0-.547.547v16.407c0 .301.245.546.547.546h8.906a.547.547 0 0 0 .547-.547V2.459a.547.547 0 0 0-.547-.547H2.55Z"/><path fill="#fff" d="M8.253 4.099h-2.5a.625.625 0 0 1 0-1.25h2.5a.625.625 0 0 1 0 1.25ZM7.002 18.661a1 1 0 1 0 0-2 1 1 0 0 0 0 2Z"/></svg>